<mxfile host="app.diagrams.net" modified="2023-04-24T20:08:21.164Z" agent="Mozilla/5.0 (Windows NT 10.0; Win64; x64) AppleWebKit/537.36 (KHTML, like Gecko) Chrome/112.0.0.0 Safari/537.36" etag="MvtLiGrzqzjlN4kOpkCM" version="21.2.1" type="github">
  <diagram name="Page-1" id="tTelNtG5nTAstVyEt5DH">
    <mxGraphModel dx="2899" dy="1197" grid="1" gridSize="10" guides="1" tooltips="1" connect="1" arrows="1" fold="1" page="1" pageScale="1" pageWidth="850" pageHeight="1100" math="0" shadow="0">
      <root>
        <mxCell id="0" />
        <mxCell id="1" parent="0" />
        <mxCell id="TixPq02yjRBzD6OdScwW-91" style="edgeStyle=orthogonalEdgeStyle;rounded=0;orthogonalLoop=1;jettySize=auto;html=1;exitX=0;exitY=0.5;exitDx=0;exitDy=0;entryX=1;entryY=0.5;entryDx=0;entryDy=0;" parent="1" source="TixPq02yjRBzD6OdScwW-1" target="TixPq02yjRBzD6OdScwW-86" edge="1">
          <mxGeometry relative="1" as="geometry">
            <Array as="points">
              <mxPoint x="390" y="550" />
              <mxPoint x="310" y="550" />
              <mxPoint x="310" y="470" />
            </Array>
          </mxGeometry>
        </mxCell>
        <mxCell id="TixPq02yjRBzD6OdScwW-1" value="Member" style="whiteSpace=wrap;html=1;align=center;fillColor=#d5e8d4;strokeColor=#82b366;" parent="1" vertex="1">
          <mxGeometry x="390" y="600" width="100" height="40" as="geometry" />
        </mxCell>
        <mxCell id="TixPq02yjRBzD6OdScwW-2" value="Customer" style="whiteSpace=wrap;html=1;align=center;fillColor=#d5e8d4;strokeColor=#82b366;" parent="1" vertex="1">
          <mxGeometry x="-60" y="240" width="100" height="40" as="geometry" />
        </mxCell>
        <mxCell id="TixPq02yjRBzD6OdScwW-89" style="edgeStyle=orthogonalEdgeStyle;rounded=0;orthogonalLoop=1;jettySize=auto;html=1;exitX=0;exitY=0.5;exitDx=0;exitDy=0;entryX=1;entryY=0.5;entryDx=0;entryDy=0;" parent="1" source="TixPq02yjRBzD6OdScwW-3" target="TixPq02yjRBzD6OdScwW-87" edge="1">
          <mxGeometry relative="1" as="geometry">
            <Array as="points">
              <mxPoint x="570" y="260" />
              <mxPoint x="570" y="140" />
            </Array>
          </mxGeometry>
        </mxCell>
        <mxCell id="TixPq02yjRBzD6OdScwW-3" value="Instructor" style="whiteSpace=wrap;html=1;align=center;fillColor=#d5e8d4;strokeColor=#82b366;" parent="1" vertex="1">
          <mxGeometry x="840" y="240" width="100" height="40" as="geometry" />
        </mxCell>
        <mxCell id="TixPq02yjRBzD6OdScwW-156" style="edgeStyle=orthogonalEdgeStyle;rounded=0;orthogonalLoop=1;jettySize=auto;html=1;exitX=0;exitY=0.5;exitDx=0;exitDy=0;entryX=1;entryY=0.5;entryDx=0;entryDy=0;" parent="1" source="TixPq02yjRBzD6OdScwW-4" target="TixPq02yjRBzD6OdScwW-155" edge="1">
          <mxGeometry relative="1" as="geometry" />
        </mxCell>
        <mxCell id="Lxrb02coDtLvzyHYDfZ3-8" style="edgeStyle=orthogonalEdgeStyle;rounded=0;orthogonalLoop=1;jettySize=auto;html=1;entryX=0.5;entryY=1;entryDx=0;entryDy=0;" edge="1" parent="1" source="TixPq02yjRBzD6OdScwW-4" target="Lxrb02coDtLvzyHYDfZ3-7">
          <mxGeometry relative="1" as="geometry" />
        </mxCell>
        <mxCell id="TixPq02yjRBzD6OdScwW-4" value="Workout&lt;br&gt;Plan" style="whiteSpace=wrap;html=1;align=center;fillColor=#d5e8d4;strokeColor=#82b366;" parent="1" vertex="1">
          <mxGeometry x="840" y="610" width="100" height="40" as="geometry" />
        </mxCell>
        <mxCell id="TixPq02yjRBzD6OdScwW-5" value="Workout" style="whiteSpace=wrap;html=1;align=center;fillColor=#d5e8d4;strokeColor=#82b366;" parent="1" vertex="1">
          <mxGeometry x="840" y="1000" width="100" height="40" as="geometry" />
        </mxCell>
        <mxCell id="TixPq02yjRBzD6OdScwW-6" value="Payment" style="whiteSpace=wrap;html=1;align=center;fillColor=#d5e8d4;strokeColor=#82b366;" parent="1" vertex="1">
          <mxGeometry x="-60" y="600" width="100" height="40" as="geometry" />
        </mxCell>
        <mxCell id="TixPq02yjRBzD6OdScwW-10" value="Health Record" style="whiteSpace=wrap;html=1;align=center;fillColor=#d5e8d4;strokeColor=#82b366;" parent="1" vertex="1">
          <mxGeometry x="-60" y="1000" width="100" height="40" as="geometry" />
        </mxCell>
        <mxCell id="TixPq02yjRBzD6OdScwW-13" value="Cust_ID" style="ellipse;whiteSpace=wrap;html=1;align=center;" parent="1" vertex="1">
          <mxGeometry x="-240" y="160" width="100" height="40" as="geometry" />
        </mxCell>
        <mxCell id="TixPq02yjRBzD6OdScwW-32" value="House_no" style="ellipse;whiteSpace=wrap;html=1;align=center;" parent="1" vertex="1">
          <mxGeometry x="-60" y="40" width="100" height="40" as="geometry" />
        </mxCell>
        <mxCell id="TixPq02yjRBzD6OdScwW-33" value="Street" style="ellipse;whiteSpace=wrap;html=1;align=center;" parent="1" vertex="1">
          <mxGeometry x="-150" y="80" width="100" height="40" as="geometry" />
        </mxCell>
        <mxCell id="TixPq02yjRBzD6OdScwW-34" value="Location" style="ellipse;whiteSpace=wrap;html=1;align=center;" parent="1" vertex="1">
          <mxGeometry x="30" y="80" width="100" height="40" as="geometry" />
        </mxCell>
        <mxCell id="TixPq02yjRBzD6OdScwW-35" value="Address" style="ellipse;whiteSpace=wrap;html=1;align=center;" parent="1" vertex="1">
          <mxGeometry x="-60" y="160" width="100" height="40" as="geometry" />
        </mxCell>
        <mxCell id="TixPq02yjRBzD6OdScwW-36" value="Cust_name" style="ellipse;whiteSpace=wrap;html=1;align=center;" parent="1" vertex="1">
          <mxGeometry x="-330" y="220" width="100" height="40" as="geometry" />
        </mxCell>
        <mxCell id="TixPq02yjRBzD6OdScwW-37" value="Contact" style="ellipse;whiteSpace=wrap;html=1;align=center;" parent="1" vertex="1">
          <mxGeometry x="-240" y="290" width="100" height="40" as="geometry" />
        </mxCell>
        <mxCell id="TixPq02yjRBzD6OdScwW-38" value="Username" style="ellipse;whiteSpace=wrap;html=1;align=center;" parent="1" vertex="1">
          <mxGeometry x="-120" y="320" width="100" height="40" as="geometry" />
        </mxCell>
        <mxCell id="TixPq02yjRBzD6OdScwW-39" value="Password" style="ellipse;whiteSpace=wrap;html=1;align=center;" parent="1" vertex="1">
          <mxGeometry x="50" y="320" width="100" height="40" as="geometry" />
        </mxCell>
        <mxCell id="TixPq02yjRBzD6OdScwW-41" value="Joining Date" style="ellipse;whiteSpace=wrap;html=1;align=center;" parent="1" vertex="1">
          <mxGeometry x="560" y="560" width="100" height="40" as="geometry" />
        </mxCell>
        <mxCell id="TixPq02yjRBzD6OdScwW-42" value="Age" style="ellipse;whiteSpace=wrap;html=1;align=center;" parent="1" vertex="1">
          <mxGeometry x="190" y="640" width="100" height="40" as="geometry" />
        </mxCell>
        <mxCell id="TixPq02yjRBzD6OdScwW-43" value="End of&lt;br&gt;Membership" style="ellipse;whiteSpace=wrap;html=1;align=center;" parent="1" vertex="1">
          <mxGeometry x="560" y="640" width="100" height="40" as="geometry" />
        </mxCell>
        <mxCell id="TixPq02yjRBzD6OdScwW-45" value="Email" style="ellipse;whiteSpace=wrap;html=1;align=center;" parent="1" vertex="1">
          <mxGeometry x="190" y="560" width="100" height="40" as="geometry" />
        </mxCell>
        <mxCell id="TixPq02yjRBzD6OdScwW-46" value="Gender" style="ellipse;whiteSpace=wrap;html=1;align=center;" parent="1" vertex="1">
          <mxGeometry x="390" y="700" width="100" height="40" as="geometry" />
        </mxCell>
        <mxCell id="TixPq02yjRBzD6OdScwW-49" value="Inst_ID" style="ellipse;whiteSpace=wrap;html=1;align=center;fontStyle=4;" parent="1" vertex="1">
          <mxGeometry x="960" y="320" width="100" height="40" as="geometry" />
        </mxCell>
        <mxCell id="TixPq02yjRBzD6OdScwW-51" value="Inst_name" style="ellipse;whiteSpace=wrap;html=1;align=center;" parent="1" vertex="1">
          <mxGeometry x="1040" y="200" width="100" height="40" as="geometry" />
        </mxCell>
        <mxCell id="TixPq02yjRBzD6OdScwW-52" value="Email" style="ellipse;whiteSpace=wrap;html=1;align=center;" parent="1" vertex="1">
          <mxGeometry x="720" y="320" width="100" height="40" as="geometry" />
        </mxCell>
        <mxCell id="TixPq02yjRBzD6OdScwW-54" value="Contact" style="ellipse;whiteSpace=wrap;html=1;align=center;" parent="1" vertex="1">
          <mxGeometry x="680" y="200" width="100" height="40" as="geometry" />
        </mxCell>
        <mxCell id="TixPq02yjRBzD6OdScwW-55" value="Address" style="ellipse;whiteSpace=wrap;html=1;align=center;" parent="1" vertex="1">
          <mxGeometry x="830" y="160" width="100" height="40" as="geometry" />
        </mxCell>
        <mxCell id="TixPq02yjRBzD6OdScwW-56" value="House_no" style="ellipse;whiteSpace=wrap;html=1;align=center;" parent="1" vertex="1">
          <mxGeometry x="830" y="20" width="100" height="40" as="geometry" />
        </mxCell>
        <mxCell id="TixPq02yjRBzD6OdScwW-57" value="Location" style="ellipse;whiteSpace=wrap;html=1;align=center;" parent="1" vertex="1">
          <mxGeometry x="750" y="90" width="100" height="40" as="geometry" />
        </mxCell>
        <mxCell id="TixPq02yjRBzD6OdScwW-58" value="Street" style="ellipse;whiteSpace=wrap;html=1;align=center;" parent="1" vertex="1">
          <mxGeometry x="900" y="90" width="100" height="40" as="geometry" />
        </mxCell>
        <mxCell id="TixPq02yjRBzD6OdScwW-59" value="Plan_ID" style="ellipse;whiteSpace=wrap;html=1;align=center;fontStyle=4;" parent="1" vertex="1">
          <mxGeometry x="840" y="520" width="100" height="40" as="geometry" />
        </mxCell>
        <mxCell id="TixPq02yjRBzD6OdScwW-60" value="Mem_ID" style="ellipse;whiteSpace=wrap;html=1;align=center;" parent="1" vertex="1">
          <mxGeometry x="980" y="560" width="100" height="40" as="geometry" />
        </mxCell>
        <mxCell id="TixPq02yjRBzD6OdScwW-62" value="Ins_ID" style="ellipse;whiteSpace=wrap;html=1;align=center;" parent="1" vertex="1">
          <mxGeometry x="970" y="680" width="100" height="40" as="geometry" />
        </mxCell>
        <mxCell id="TixPq02yjRBzD6OdScwW-63" value="Workout_time" style="ellipse;whiteSpace=wrap;html=1;align=center;" parent="1" vertex="1">
          <mxGeometry x="1050" y="610" width="100" height="40" as="geometry" />
        </mxCell>
        <mxCell id="TixPq02yjRBzD6OdScwW-64" value="Workout_duration" style="ellipse;whiteSpace=wrap;html=1;align=center;" parent="1" vertex="1">
          <mxGeometry x="840" y="720" width="100" height="40" as="geometry" />
        </mxCell>
        <mxCell id="TixPq02yjRBzD6OdScwW-66" value="Cust_ID" style="ellipse;whiteSpace=wrap;html=1;align=center;" parent="1" vertex="1">
          <mxGeometry x="330" y="490" width="100" height="40" as="geometry" />
        </mxCell>
        <mxCell id="TixPq02yjRBzD6OdScwW-67" value="Mem_ID" style="ellipse;whiteSpace=wrap;html=1;align=center;fontStyle=4;" parent="1" vertex="1">
          <mxGeometry x="470" y="490" width="100" height="40" as="geometry" />
        </mxCell>
        <mxCell id="TixPq02yjRBzD6OdScwW-70" value="Wokout_ID" style="ellipse;whiteSpace=wrap;html=1;align=center;fontStyle=4;" parent="1" vertex="1">
          <mxGeometry x="840" y="880" width="100" height="40" as="geometry" />
        </mxCell>
        <mxCell id="TixPq02yjRBzD6OdScwW-71" value="Plan_ID" style="ellipse;whiteSpace=wrap;html=1;align=center;" parent="1" vertex="1">
          <mxGeometry x="960" y="920" width="100" height="40" as="geometry" />
        </mxCell>
        <mxCell id="TixPq02yjRBzD6OdScwW-72" value="Name" style="ellipse;whiteSpace=wrap;html=1;align=center;" parent="1" vertex="1">
          <mxGeometry x="1000" y="1000" width="100" height="40" as="geometry" />
        </mxCell>
        <mxCell id="TixPq02yjRBzD6OdScwW-73" value="Description" style="ellipse;whiteSpace=wrap;html=1;align=center;" parent="1" vertex="1">
          <mxGeometry x="960" y="1080" width="100" height="40" as="geometry" />
        </mxCell>
        <mxCell id="TixPq02yjRBzD6OdScwW-74" value="Health_ID" style="ellipse;whiteSpace=wrap;html=1;align=center;fontStyle=4;" parent="1" vertex="1">
          <mxGeometry x="-60" y="920" width="100" height="40" as="geometry" />
        </mxCell>
        <mxCell id="TixPq02yjRBzD6OdScwW-75" value="Mem_ID" style="ellipse;whiteSpace=wrap;html=1;align=center;" parent="1" vertex="1">
          <mxGeometry x="110" y="980" width="100" height="40" as="geometry" />
        </mxCell>
        <mxCell id="TixPq02yjRBzD6OdScwW-76" value="Height" style="ellipse;whiteSpace=wrap;html=1;align=center;" parent="1" vertex="1">
          <mxGeometry x="-230" y="1050" width="100" height="40" as="geometry" />
        </mxCell>
        <mxCell id="TixPq02yjRBzD6OdScwW-77" value="Weight" style="ellipse;whiteSpace=wrap;html=1;align=center;" parent="1" vertex="1">
          <mxGeometry x="-230" y="970" width="100" height="40" as="geometry" />
        </mxCell>
        <mxCell id="TixPq02yjRBzD6OdScwW-78" value="BMI" style="ellipse;whiteSpace=wrap;html=1;align=center;" parent="1" vertex="1">
          <mxGeometry x="110" y="1050" width="100" height="40" as="geometry" />
        </mxCell>
        <mxCell id="TixPq02yjRBzD6OdScwW-79" value="Muscle_mass" style="ellipse;whiteSpace=wrap;html=1;align=center;" parent="1" vertex="1">
          <mxGeometry x="-60" y="1080" width="100" height="40" as="geometry" />
        </mxCell>
        <mxCell id="TixPq02yjRBzD6OdScwW-80" value="Pay_ID" style="ellipse;whiteSpace=wrap;html=1;align=center;fontStyle=4;" parent="1" vertex="1">
          <mxGeometry x="-220" y="520" width="100" height="40" as="geometry" />
        </mxCell>
        <mxCell id="TixPq02yjRBzD6OdScwW-82" value="Mem_ID" style="ellipse;whiteSpace=wrap;html=1;align=center;" parent="1" vertex="1">
          <mxGeometry x="-220" y="600" width="100" height="40" as="geometry" />
        </mxCell>
        <mxCell id="TixPq02yjRBzD6OdScwW-83" value="Amount" style="ellipse;whiteSpace=wrap;html=1;align=center;" parent="1" vertex="1">
          <mxGeometry x="-60" y="520" width="100" height="40" as="geometry" />
        </mxCell>
        <mxCell id="TixPq02yjRBzD6OdScwW-84" value="Time" style="ellipse;whiteSpace=wrap;html=1;align=center;" parent="1" vertex="1">
          <mxGeometry x="-220" y="680" width="100" height="40" as="geometry" />
        </mxCell>
        <mxCell id="TixPq02yjRBzD6OdScwW-85" value="Description" style="ellipse;whiteSpace=wrap;html=1;align=center;" parent="1" vertex="1">
          <mxGeometry x="-60" y="680" width="100" height="40" as="geometry" />
        </mxCell>
        <mxCell id="TixPq02yjRBzD6OdScwW-92" style="edgeStyle=orthogonalEdgeStyle;rounded=0;orthogonalLoop=1;jettySize=auto;html=1;exitX=0;exitY=0.5;exitDx=0;exitDy=0;entryX=1;entryY=0.5;entryDx=0;entryDy=0;" parent="1" source="TixPq02yjRBzD6OdScwW-86" target="TixPq02yjRBzD6OdScwW-6" edge="1">
          <mxGeometry relative="1" as="geometry" />
        </mxCell>
        <mxCell id="TixPq02yjRBzD6OdScwW-86" value="Made by" style="shape=rhombus;perimeter=rhombusPerimeter;whiteSpace=wrap;html=1;align=center;fillColor=#dae8fc;strokeColor=#6c8ebf;" parent="1" vertex="1">
          <mxGeometry x="110" y="440" width="120" height="60" as="geometry" />
        </mxCell>
        <mxCell id="TixPq02yjRBzD6OdScwW-90" style="edgeStyle=orthogonalEdgeStyle;rounded=0;orthogonalLoop=1;jettySize=auto;html=1;exitX=0;exitY=0.5;exitDx=0;exitDy=0;entryX=1;entryY=0.5;entryDx=0;entryDy=0;" parent="1" source="TixPq02yjRBzD6OdScwW-87" target="TixPq02yjRBzD6OdScwW-2" edge="1">
          <mxGeometry relative="1" as="geometry">
            <Array as="points">
              <mxPoint x="250" y="140" />
              <mxPoint x="250" y="260" />
            </Array>
          </mxGeometry>
        </mxCell>
        <mxCell id="TixPq02yjRBzD6OdScwW-87" value="Assigned to" style="shape=rhombus;perimeter=rhombusPerimeter;whiteSpace=wrap;html=1;align=center;fillColor=#dae8fc;strokeColor=#6c8ebf;" parent="1" vertex="1">
          <mxGeometry x="340" y="110" width="120" height="60" as="geometry" />
        </mxCell>
        <mxCell id="TixPq02yjRBzD6OdScwW-96" value="" style="endArrow=classic;html=1;rounded=0;exitX=0;exitY=0.5;exitDx=0;exitDy=0;entryX=1;entryY=0.5;entryDx=0;entryDy=0;" parent="1" source="TixPq02yjRBzD6OdScwW-1" target="TixPq02yjRBzD6OdScwW-45" edge="1">
          <mxGeometry width="50" height="50" relative="1" as="geometry">
            <mxPoint x="250" y="630" as="sourcePoint" />
            <mxPoint x="300" y="580" as="targetPoint" />
          </mxGeometry>
        </mxCell>
        <mxCell id="TixPq02yjRBzD6OdScwW-100" value="" style="endArrow=classic;html=1;rounded=0;entryX=1;entryY=0.5;entryDx=0;entryDy=0;" parent="1" target="TixPq02yjRBzD6OdScwW-42" edge="1">
          <mxGeometry width="50" height="50" relative="1" as="geometry">
            <mxPoint x="390" y="620" as="sourcePoint" />
            <mxPoint x="370" y="530" as="targetPoint" />
          </mxGeometry>
        </mxCell>
        <mxCell id="TixPq02yjRBzD6OdScwW-101" value="" style="endArrow=classic;html=1;rounded=0;exitX=0.5;exitY=0;exitDx=0;exitDy=0;entryX=0.5;entryY=1;entryDx=0;entryDy=0;" parent="1" source="TixPq02yjRBzD6OdScwW-2" target="TixPq02yjRBzD6OdScwW-35" edge="1">
          <mxGeometry width="50" height="50" relative="1" as="geometry">
            <mxPoint x="-30" y="220" as="sourcePoint" />
            <mxPoint x="20" y="170" as="targetPoint" />
          </mxGeometry>
        </mxCell>
        <mxCell id="TixPq02yjRBzD6OdScwW-102" value="" style="endArrow=classic;html=1;rounded=0;exitX=0.5;exitY=0;exitDx=0;exitDy=0;entryX=0.5;entryY=1;entryDx=0;entryDy=0;" parent="1" source="TixPq02yjRBzD6OdScwW-35" target="TixPq02yjRBzD6OdScwW-33" edge="1">
          <mxGeometry width="50" height="50" relative="1" as="geometry">
            <mxPoint x="-30" y="220" as="sourcePoint" />
            <mxPoint x="20" y="170" as="targetPoint" />
          </mxGeometry>
        </mxCell>
        <mxCell id="TixPq02yjRBzD6OdScwW-103" value="" style="endArrow=classic;html=1;rounded=0;exitX=0.5;exitY=0;exitDx=0;exitDy=0;entryX=0.5;entryY=1;entryDx=0;entryDy=0;" parent="1" source="TixPq02yjRBzD6OdScwW-35" target="TixPq02yjRBzD6OdScwW-32" edge="1">
          <mxGeometry width="50" height="50" relative="1" as="geometry">
            <mxPoint y="220" as="sourcePoint" />
            <mxPoint x="50" y="170" as="targetPoint" />
          </mxGeometry>
        </mxCell>
        <mxCell id="TixPq02yjRBzD6OdScwW-104" value="" style="endArrow=classic;html=1;rounded=0;entryX=0.5;entryY=1;entryDx=0;entryDy=0;" parent="1" target="TixPq02yjRBzD6OdScwW-34" edge="1">
          <mxGeometry width="50" height="50" relative="1" as="geometry">
            <mxPoint x="-10" y="160" as="sourcePoint" />
            <mxPoint x="50" y="170" as="targetPoint" />
          </mxGeometry>
        </mxCell>
        <mxCell id="TixPq02yjRBzD6OdScwW-105" value="" style="endArrow=classic;html=1;rounded=0;exitX=0;exitY=0.5;exitDx=0;exitDy=0;" parent="1" source="TixPq02yjRBzD6OdScwW-2" target="TixPq02yjRBzD6OdScwW-13" edge="1">
          <mxGeometry width="50" height="50" relative="1" as="geometry">
            <mxPoint x="-100" y="210" as="sourcePoint" />
            <mxPoint x="-50" y="160" as="targetPoint" />
          </mxGeometry>
        </mxCell>
        <mxCell id="TixPq02yjRBzD6OdScwW-106" value="" style="endArrow=classic;html=1;rounded=0;exitX=0;exitY=0.5;exitDx=0;exitDy=0;entryX=1;entryY=0.5;entryDx=0;entryDy=0;" parent="1" source="TixPq02yjRBzD6OdScwW-2" target="TixPq02yjRBzD6OdScwW-36" edge="1">
          <mxGeometry width="50" height="50" relative="1" as="geometry">
            <mxPoint x="-100" y="210" as="sourcePoint" />
            <mxPoint x="-50" y="160" as="targetPoint" />
          </mxGeometry>
        </mxCell>
        <mxCell id="TixPq02yjRBzD6OdScwW-107" value="" style="endArrow=classic;html=1;rounded=0;exitX=0;exitY=0.5;exitDx=0;exitDy=0;entryX=1;entryY=0;entryDx=0;entryDy=0;" parent="1" source="TixPq02yjRBzD6OdScwW-2" target="TixPq02yjRBzD6OdScwW-37" edge="1">
          <mxGeometry width="50" height="50" relative="1" as="geometry">
            <mxPoint x="30" y="230" as="sourcePoint" />
            <mxPoint x="80" y="180" as="targetPoint" />
          </mxGeometry>
        </mxCell>
        <mxCell id="TixPq02yjRBzD6OdScwW-108" value="" style="endArrow=classic;html=1;rounded=0;exitX=0.5;exitY=1;exitDx=0;exitDy=0;entryX=0.5;entryY=0;entryDx=0;entryDy=0;" parent="1" source="TixPq02yjRBzD6OdScwW-2" target="TixPq02yjRBzD6OdScwW-38" edge="1">
          <mxGeometry width="50" height="50" relative="1" as="geometry">
            <mxPoint x="-20" y="260" as="sourcePoint" />
            <mxPoint x="30" y="210" as="targetPoint" />
          </mxGeometry>
        </mxCell>
        <mxCell id="TixPq02yjRBzD6OdScwW-112" value="" style="endArrow=classic;html=1;rounded=0;exitX=0.5;exitY=1;exitDx=0;exitDy=0;entryX=0.5;entryY=0;entryDx=0;entryDy=0;" parent="1" source="TixPq02yjRBzD6OdScwW-2" target="TixPq02yjRBzD6OdScwW-39" edge="1">
          <mxGeometry width="50" height="50" relative="1" as="geometry">
            <mxPoint x="-20" y="320" as="sourcePoint" />
            <mxPoint x="30" y="270" as="targetPoint" />
          </mxGeometry>
        </mxCell>
        <mxCell id="TixPq02yjRBzD6OdScwW-113" value="" style="endArrow=classic;html=1;rounded=0;exitX=0;exitY=0.5;exitDx=0;exitDy=0;entryX=1;entryY=0.5;entryDx=0;entryDy=0;" parent="1" source="TixPq02yjRBzD6OdScwW-6" target="TixPq02yjRBzD6OdScwW-82" edge="1">
          <mxGeometry width="50" height="50" relative="1" as="geometry">
            <mxPoint x="20" y="650" as="sourcePoint" />
            <mxPoint x="70" y="600" as="targetPoint" />
          </mxGeometry>
        </mxCell>
        <mxCell id="TixPq02yjRBzD6OdScwW-114" value="" style="endArrow=classic;html=1;rounded=0;exitX=0;exitY=0.5;exitDx=0;exitDy=0;entryX=1;entryY=0.5;entryDx=0;entryDy=0;" parent="1" source="TixPq02yjRBzD6OdScwW-6" target="TixPq02yjRBzD6OdScwW-80" edge="1">
          <mxGeometry width="50" height="50" relative="1" as="geometry">
            <mxPoint x="80" y="650" as="sourcePoint" />
            <mxPoint x="130" y="600" as="targetPoint" />
          </mxGeometry>
        </mxCell>
        <mxCell id="TixPq02yjRBzD6OdScwW-115" value="" style="endArrow=classic;html=1;rounded=0;exitX=0.5;exitY=0;exitDx=0;exitDy=0;entryX=0.5;entryY=1;entryDx=0;entryDy=0;" parent="1" source="TixPq02yjRBzD6OdScwW-6" target="TixPq02yjRBzD6OdScwW-83" edge="1">
          <mxGeometry width="50" height="50" relative="1" as="geometry">
            <mxPoint x="80" y="650" as="sourcePoint" />
            <mxPoint x="130" y="600" as="targetPoint" />
          </mxGeometry>
        </mxCell>
        <mxCell id="TixPq02yjRBzD6OdScwW-116" value="" style="endArrow=classic;html=1;rounded=0;exitX=0;exitY=0.5;exitDx=0;exitDy=0;entryX=1;entryY=0.5;entryDx=0;entryDy=0;" parent="1" source="TixPq02yjRBzD6OdScwW-6" target="TixPq02yjRBzD6OdScwW-84" edge="1">
          <mxGeometry width="50" height="50" relative="1" as="geometry">
            <mxPoint x="80" y="780" as="sourcePoint" />
            <mxPoint x="130" y="730" as="targetPoint" />
          </mxGeometry>
        </mxCell>
        <mxCell id="TixPq02yjRBzD6OdScwW-117" value="" style="endArrow=classic;html=1;rounded=0;exitX=0.5;exitY=1;exitDx=0;exitDy=0;entryX=0.5;entryY=0;entryDx=0;entryDy=0;" parent="1" source="TixPq02yjRBzD6OdScwW-6" target="TixPq02yjRBzD6OdScwW-85" edge="1">
          <mxGeometry width="50" height="50" relative="1" as="geometry">
            <mxPoint x="80" y="780" as="sourcePoint" />
            <mxPoint x="130" y="730" as="targetPoint" />
          </mxGeometry>
        </mxCell>
        <mxCell id="TixPq02yjRBzD6OdScwW-119" value="" style="endArrow=classic;html=1;rounded=0;exitX=0.5;exitY=0;exitDx=0;exitDy=0;entryX=0.5;entryY=1;entryDx=0;entryDy=0;" parent="1" source="TixPq02yjRBzD6OdScwW-1" target="TixPq02yjRBzD6OdScwW-66" edge="1">
          <mxGeometry width="50" height="50" relative="1" as="geometry">
            <mxPoint x="390" y="680" as="sourcePoint" />
            <mxPoint x="440" y="630" as="targetPoint" />
          </mxGeometry>
        </mxCell>
        <mxCell id="TixPq02yjRBzD6OdScwW-120" value="" style="endArrow=classic;html=1;rounded=0;exitX=0.5;exitY=0;exitDx=0;exitDy=0;entryX=0.5;entryY=1;entryDx=0;entryDy=0;" parent="1" source="TixPq02yjRBzD6OdScwW-1" target="TixPq02yjRBzD6OdScwW-67" edge="1">
          <mxGeometry width="50" height="50" relative="1" as="geometry">
            <mxPoint x="390" y="680" as="sourcePoint" />
            <mxPoint x="440" y="630" as="targetPoint" />
          </mxGeometry>
        </mxCell>
        <mxCell id="TixPq02yjRBzD6OdScwW-121" value="" style="endArrow=classic;html=1;rounded=0;exitX=1;exitY=0.5;exitDx=0;exitDy=0;" parent="1" source="TixPq02yjRBzD6OdScwW-1" target="TixPq02yjRBzD6OdScwW-41" edge="1">
          <mxGeometry width="50" height="50" relative="1" as="geometry">
            <mxPoint x="390" y="680" as="sourcePoint" />
            <mxPoint x="440" y="630" as="targetPoint" />
          </mxGeometry>
        </mxCell>
        <mxCell id="TixPq02yjRBzD6OdScwW-122" value="" style="endArrow=classic;html=1;rounded=0;entryX=0;entryY=0;entryDx=0;entryDy=0;exitX=1;exitY=0.5;exitDx=0;exitDy=0;" parent="1" source="TixPq02yjRBzD6OdScwW-1" target="TixPq02yjRBzD6OdScwW-43" edge="1">
          <mxGeometry width="50" height="50" relative="1" as="geometry">
            <mxPoint x="390" y="680" as="sourcePoint" />
            <mxPoint x="440" y="630" as="targetPoint" />
          </mxGeometry>
        </mxCell>
        <mxCell id="TixPq02yjRBzD6OdScwW-123" value="" style="endArrow=classic;html=1;rounded=0;exitX=0.5;exitY=1;exitDx=0;exitDy=0;entryX=0.5;entryY=0;entryDx=0;entryDy=0;" parent="1" source="TixPq02yjRBzD6OdScwW-1" target="TixPq02yjRBzD6OdScwW-46" edge="1">
          <mxGeometry width="50" height="50" relative="1" as="geometry">
            <mxPoint x="390" y="680" as="sourcePoint" />
            <mxPoint x="440" y="630" as="targetPoint" />
          </mxGeometry>
        </mxCell>
        <mxCell id="TixPq02yjRBzD6OdScwW-124" value="" style="endArrow=classic;html=1;rounded=0;entryX=0.5;entryY=1;entryDx=0;entryDy=0;exitX=0.5;exitY=0;exitDx=0;exitDy=0;" parent="1" source="TixPq02yjRBzD6OdScwW-3" target="TixPq02yjRBzD6OdScwW-55" edge="1">
          <mxGeometry width="50" height="50" relative="1" as="geometry">
            <mxPoint x="900" y="350" as="sourcePoint" />
            <mxPoint x="950" y="300" as="targetPoint" />
          </mxGeometry>
        </mxCell>
        <mxCell id="TixPq02yjRBzD6OdScwW-125" value="" style="endArrow=classic;html=1;rounded=0;exitX=0.5;exitY=0;exitDx=0;exitDy=0;entryX=0.5;entryY=1;entryDx=0;entryDy=0;" parent="1" source="TixPq02yjRBzD6OdScwW-55" target="TixPq02yjRBzD6OdScwW-57" edge="1">
          <mxGeometry width="50" height="50" relative="1" as="geometry">
            <mxPoint x="900" y="350" as="sourcePoint" />
            <mxPoint x="950" y="300" as="targetPoint" />
          </mxGeometry>
        </mxCell>
        <mxCell id="TixPq02yjRBzD6OdScwW-126" value="" style="endArrow=classic;html=1;rounded=0;entryX=0.5;entryY=1;entryDx=0;entryDy=0;" parent="1" target="TixPq02yjRBzD6OdScwW-58" edge="1">
          <mxGeometry width="50" height="50" relative="1" as="geometry">
            <mxPoint x="880" y="160" as="sourcePoint" />
            <mxPoint x="950" y="300" as="targetPoint" />
          </mxGeometry>
        </mxCell>
        <mxCell id="TixPq02yjRBzD6OdScwW-127" value="" style="endArrow=classic;html=1;rounded=0;entryX=0.5;entryY=1;entryDx=0;entryDy=0;" parent="1" source="TixPq02yjRBzD6OdScwW-55" target="TixPq02yjRBzD6OdScwW-56" edge="1">
          <mxGeometry width="50" height="50" relative="1" as="geometry">
            <mxPoint x="900" y="350" as="sourcePoint" />
            <mxPoint x="950" y="300" as="targetPoint" />
          </mxGeometry>
        </mxCell>
        <mxCell id="TixPq02yjRBzD6OdScwW-128" value="" style="endArrow=classic;html=1;rounded=0;entryX=0.105;entryY=0.787;entryDx=0;entryDy=0;entryPerimeter=0;exitX=1;exitY=0.5;exitDx=0;exitDy=0;" parent="1" source="TixPq02yjRBzD6OdScwW-3" target="TixPq02yjRBzD6OdScwW-51" edge="1">
          <mxGeometry width="50" height="50" relative="1" as="geometry">
            <mxPoint x="1040" y="350" as="sourcePoint" />
            <mxPoint x="1090" y="300" as="targetPoint" />
          </mxGeometry>
        </mxCell>
        <mxCell id="TixPq02yjRBzD6OdScwW-129" value="" style="endArrow=classic;html=1;rounded=0;entryX=0.163;entryY=0.055;entryDx=0;entryDy=0;entryPerimeter=0;" parent="1" target="TixPq02yjRBzD6OdScwW-49" edge="1">
          <mxGeometry width="50" height="50" relative="1" as="geometry">
            <mxPoint x="940" y="260" as="sourcePoint" />
            <mxPoint x="1090" y="300" as="targetPoint" />
          </mxGeometry>
        </mxCell>
        <mxCell id="TixPq02yjRBzD6OdScwW-130" value="" style="endArrow=classic;html=1;rounded=0;entryX=1;entryY=0.5;entryDx=0;entryDy=0;exitX=0;exitY=0;exitDx=0;exitDy=0;" parent="1" source="TixPq02yjRBzD6OdScwW-3" target="TixPq02yjRBzD6OdScwW-54" edge="1">
          <mxGeometry width="50" height="50" relative="1" as="geometry">
            <mxPoint x="770" y="310" as="sourcePoint" />
            <mxPoint x="820" y="260" as="targetPoint" />
          </mxGeometry>
        </mxCell>
        <mxCell id="TixPq02yjRBzD6OdScwW-131" value="" style="endArrow=classic;html=1;rounded=0;exitX=0.5;exitY=1;exitDx=0;exitDy=0;entryX=0.954;entryY=0.214;entryDx=0;entryDy=0;entryPerimeter=0;" parent="1" source="TixPq02yjRBzD6OdScwW-3" target="TixPq02yjRBzD6OdScwW-52" edge="1">
          <mxGeometry width="50" height="50" relative="1" as="geometry">
            <mxPoint x="770" y="310" as="sourcePoint" />
            <mxPoint x="820" y="260" as="targetPoint" />
          </mxGeometry>
        </mxCell>
        <mxCell id="TixPq02yjRBzD6OdScwW-132" value="1" style="text;html=1;align=center;verticalAlign=middle;resizable=0;points=[];autosize=1;strokeColor=none;fillColor=none;" parent="1" vertex="1">
          <mxGeometry x="800" y="260" width="30" height="30" as="geometry" />
        </mxCell>
        <mxCell id="TixPq02yjRBzD6OdScwW-133" value="" style="endArrow=classic;html=1;rounded=0;entryX=0.5;entryY=1;entryDx=0;entryDy=0;exitX=0.5;exitY=0;exitDx=0;exitDy=0;" parent="1" source="TixPq02yjRBzD6OdScwW-4" target="TixPq02yjRBzD6OdScwW-59" edge="1">
          <mxGeometry width="50" height="50" relative="1" as="geometry">
            <mxPoint x="640" y="820" as="sourcePoint" />
            <mxPoint x="690" y="770" as="targetPoint" />
          </mxGeometry>
        </mxCell>
        <mxCell id="TixPq02yjRBzD6OdScwW-134" value="" style="endArrow=classic;html=1;rounded=0;entryX=0;entryY=1;entryDx=0;entryDy=0;exitX=1;exitY=0.5;exitDx=0;exitDy=0;" parent="1" source="TixPq02yjRBzD6OdScwW-4" target="TixPq02yjRBzD6OdScwW-60" edge="1">
          <mxGeometry width="50" height="50" relative="1" as="geometry">
            <mxPoint x="890" y="720" as="sourcePoint" />
            <mxPoint x="940" y="670" as="targetPoint" />
          </mxGeometry>
        </mxCell>
        <mxCell id="TixPq02yjRBzD6OdScwW-135" value="" style="endArrow=classic;html=1;rounded=0;entryX=0;entryY=0.5;entryDx=0;entryDy=0;" parent="1" target="TixPq02yjRBzD6OdScwW-63" edge="1">
          <mxGeometry width="50" height="50" relative="1" as="geometry">
            <mxPoint x="940" y="630" as="sourcePoint" />
            <mxPoint x="940" y="670" as="targetPoint" />
          </mxGeometry>
        </mxCell>
        <mxCell id="TixPq02yjRBzD6OdScwW-136" value="" style="endArrow=classic;html=1;rounded=0;entryX=0;entryY=0;entryDx=0;entryDy=0;exitX=1;exitY=0.5;exitDx=0;exitDy=0;" parent="1" source="TixPq02yjRBzD6OdScwW-4" target="TixPq02yjRBzD6OdScwW-62" edge="1">
          <mxGeometry width="50" height="50" relative="1" as="geometry">
            <mxPoint x="890" y="720" as="sourcePoint" />
            <mxPoint x="940" y="670" as="targetPoint" />
          </mxGeometry>
        </mxCell>
        <mxCell id="TixPq02yjRBzD6OdScwW-137" value="" style="endArrow=classic;html=1;rounded=0;exitX=0.5;exitY=1;exitDx=0;exitDy=0;entryX=0.5;entryY=0;entryDx=0;entryDy=0;" parent="1" source="TixPq02yjRBzD6OdScwW-4" target="TixPq02yjRBzD6OdScwW-64" edge="1">
          <mxGeometry width="50" height="50" relative="1" as="geometry">
            <mxPoint x="860" y="720" as="sourcePoint" />
            <mxPoint x="910" y="670" as="targetPoint" />
          </mxGeometry>
        </mxCell>
        <mxCell id="TixPq02yjRBzD6OdScwW-138" value="" style="endArrow=classic;html=1;rounded=0;entryX=0.5;entryY=1;entryDx=0;entryDy=0;exitX=0.5;exitY=0;exitDx=0;exitDy=0;" parent="1" source="TixPq02yjRBzD6OdScwW-5" target="TixPq02yjRBzD6OdScwW-70" edge="1">
          <mxGeometry width="50" height="50" relative="1" as="geometry">
            <mxPoint x="840" y="1060" as="sourcePoint" />
            <mxPoint x="890" y="1010" as="targetPoint" />
          </mxGeometry>
        </mxCell>
        <mxCell id="TixPq02yjRBzD6OdScwW-139" value="" style="endArrow=classic;html=1;rounded=0;entryX=0;entryY=1;entryDx=0;entryDy=0;" parent="1" target="TixPq02yjRBzD6OdScwW-71" edge="1">
          <mxGeometry width="50" height="50" relative="1" as="geometry">
            <mxPoint x="940" y="1020" as="sourcePoint" />
            <mxPoint x="890" y="1010" as="targetPoint" />
          </mxGeometry>
        </mxCell>
        <mxCell id="TixPq02yjRBzD6OdScwW-140" value="" style="endArrow=classic;html=1;rounded=0;entryX=0;entryY=0.5;entryDx=0;entryDy=0;exitX=1;exitY=0.5;exitDx=0;exitDy=0;" parent="1" source="TixPq02yjRBzD6OdScwW-5" target="TixPq02yjRBzD6OdScwW-72" edge="1">
          <mxGeometry width="50" height="50" relative="1" as="geometry">
            <mxPoint x="840" y="1060" as="sourcePoint" />
            <mxPoint x="890" y="1010" as="targetPoint" />
          </mxGeometry>
        </mxCell>
        <mxCell id="TixPq02yjRBzD6OdScwW-141" value="" style="endArrow=classic;html=1;rounded=0;exitX=1;exitY=0.5;exitDx=0;exitDy=0;entryX=0;entryY=0;entryDx=0;entryDy=0;" parent="1" source="TixPq02yjRBzD6OdScwW-5" target="TixPq02yjRBzD6OdScwW-73" edge="1">
          <mxGeometry width="50" height="50" relative="1" as="geometry">
            <mxPoint x="840" y="1060" as="sourcePoint" />
            <mxPoint x="890" y="1010" as="targetPoint" />
          </mxGeometry>
        </mxCell>
        <mxCell id="TixPq02yjRBzD6OdScwW-142" value="Date" style="ellipse;whiteSpace=wrap;html=1;align=center;" parent="1" vertex="1">
          <mxGeometry x="690" y="1000" width="100" height="40" as="geometry" />
        </mxCell>
        <mxCell id="TixPq02yjRBzD6OdScwW-143" value="Time" style="ellipse;whiteSpace=wrap;html=1;align=center;" parent="1" vertex="1">
          <mxGeometry x="760" y="1080" width="100" height="40" as="geometry" />
        </mxCell>
        <mxCell id="TixPq02yjRBzD6OdScwW-144" value="" style="endArrow=classic;html=1;rounded=0;exitX=0;exitY=0.5;exitDx=0;exitDy=0;entryX=1;entryY=0.5;entryDx=0;entryDy=0;" parent="1" source="TixPq02yjRBzD6OdScwW-5" target="TixPq02yjRBzD6OdScwW-142" edge="1">
          <mxGeometry width="50" height="50" relative="1" as="geometry">
            <mxPoint x="740" y="1060" as="sourcePoint" />
            <mxPoint x="790" y="1020" as="targetPoint" />
          </mxGeometry>
        </mxCell>
        <mxCell id="TixPq02yjRBzD6OdScwW-145" value="" style="endArrow=classic;html=1;rounded=0;entryX=1;entryY=0;entryDx=0;entryDy=0;" parent="1" target="TixPq02yjRBzD6OdScwW-143" edge="1">
          <mxGeometry width="50" height="50" relative="1" as="geometry">
            <mxPoint x="890" y="1040" as="sourcePoint" />
            <mxPoint x="790" y="1020" as="targetPoint" />
          </mxGeometry>
        </mxCell>
        <mxCell id="TixPq02yjRBzD6OdScwW-146" value="" style="endArrow=classic;html=1;rounded=0;entryX=0.5;entryY=1;entryDx=0;entryDy=0;exitX=0.5;exitY=0;exitDx=0;exitDy=0;" parent="1" source="TixPq02yjRBzD6OdScwW-10" target="TixPq02yjRBzD6OdScwW-74" edge="1">
          <mxGeometry width="50" height="50" relative="1" as="geometry">
            <mxPoint x="160" y="1100" as="sourcePoint" />
            <mxPoint x="210" y="1050" as="targetPoint" />
          </mxGeometry>
        </mxCell>
        <mxCell id="TixPq02yjRBzD6OdScwW-147" value="" style="endArrow=classic;html=1;rounded=0;exitX=0;exitY=0.5;exitDx=0;exitDy=0;entryX=1;entryY=0.5;entryDx=0;entryDy=0;" parent="1" source="TixPq02yjRBzD6OdScwW-10" target="TixPq02yjRBzD6OdScwW-77" edge="1">
          <mxGeometry width="50" height="50" relative="1" as="geometry">
            <mxPoint y="1090" as="sourcePoint" />
            <mxPoint x="-150" y="1000" as="targetPoint" />
          </mxGeometry>
        </mxCell>
        <mxCell id="TixPq02yjRBzD6OdScwW-148" value="" style="endArrow=classic;html=1;rounded=0;entryX=1;entryY=0.5;entryDx=0;entryDy=0;" parent="1" target="TixPq02yjRBzD6OdScwW-76" edge="1">
          <mxGeometry width="50" height="50" relative="1" as="geometry">
            <mxPoint x="-60" y="1020" as="sourcePoint" />
            <mxPoint x="50" y="1040" as="targetPoint" />
          </mxGeometry>
        </mxCell>
        <mxCell id="TixPq02yjRBzD6OdScwW-149" value="" style="endArrow=classic;html=1;rounded=0;exitX=1;exitY=0.5;exitDx=0;exitDy=0;entryX=0;entryY=0.5;entryDx=0;entryDy=0;" parent="1" source="TixPq02yjRBzD6OdScwW-10" target="TixPq02yjRBzD6OdScwW-75" edge="1">
          <mxGeometry width="50" height="50" relative="1" as="geometry">
            <mxPoint y="1090" as="sourcePoint" />
            <mxPoint x="50" y="1040" as="targetPoint" />
          </mxGeometry>
        </mxCell>
        <mxCell id="TixPq02yjRBzD6OdScwW-150" value="" style="endArrow=classic;html=1;rounded=0;exitX=0.5;exitY=1;exitDx=0;exitDy=0;entryX=0.5;entryY=0;entryDx=0;entryDy=0;" parent="1" source="TixPq02yjRBzD6OdScwW-10" target="TixPq02yjRBzD6OdScwW-79" edge="1">
          <mxGeometry width="50" height="50" relative="1" as="geometry">
            <mxPoint y="1090" as="sourcePoint" />
            <mxPoint x="50" y="1040" as="targetPoint" />
          </mxGeometry>
        </mxCell>
        <mxCell id="TixPq02yjRBzD6OdScwW-151" value="" style="endArrow=classic;html=1;rounded=0;entryX=0;entryY=0.5;entryDx=0;entryDy=0;exitX=1;exitY=0.5;exitDx=0;exitDy=0;" parent="1" source="TixPq02yjRBzD6OdScwW-10" target="TixPq02yjRBzD6OdScwW-78" edge="1">
          <mxGeometry width="50" height="50" relative="1" as="geometry">
            <mxPoint y="1090" as="sourcePoint" />
            <mxPoint x="50" y="1040" as="targetPoint" />
          </mxGeometry>
        </mxCell>
        <mxCell id="TixPq02yjRBzD6OdScwW-153" style="edgeStyle=orthogonalEdgeStyle;rounded=0;orthogonalLoop=1;jettySize=auto;html=1;exitX=0.5;exitY=0;exitDx=0;exitDy=0;entryX=0;entryY=1;entryDx=0;entryDy=0;" parent="1" source="TixPq02yjRBzD6OdScwW-152" target="TixPq02yjRBzD6OdScwW-1" edge="1">
          <mxGeometry relative="1" as="geometry">
            <Array as="points">
              <mxPoint x="260" y="810" />
              <mxPoint x="260" y="700" />
              <mxPoint x="390" y="700" />
            </Array>
          </mxGeometry>
        </mxCell>
        <mxCell id="TixPq02yjRBzD6OdScwW-152" value="Record of" style="shape=rhombus;perimeter=rhombusPerimeter;whiteSpace=wrap;html=1;align=center;fillColor=#dae8fc;strokeColor=#6c8ebf;" parent="1" vertex="1">
          <mxGeometry x="140" y="810" width="120" height="60" as="geometry" />
        </mxCell>
        <mxCell id="TixPq02yjRBzD6OdScwW-154" value="" style="endArrow=classic;html=1;rounded=0;exitX=0.75;exitY=0;exitDx=0;exitDy=0;entryX=0;entryY=0.5;entryDx=0;entryDy=0;" parent="1" source="TixPq02yjRBzD6OdScwW-10" target="TixPq02yjRBzD6OdScwW-152" edge="1">
          <mxGeometry width="50" height="50" relative="1" as="geometry">
            <mxPoint x="170" y="850" as="sourcePoint" />
            <mxPoint x="220" y="800" as="targetPoint" />
            <Array as="points">
              <mxPoint x="80" y="970" />
              <mxPoint x="80" y="840" />
            </Array>
          </mxGeometry>
        </mxCell>
        <mxCell id="TixPq02yjRBzD6OdScwW-157" style="edgeStyle=orthogonalEdgeStyle;rounded=0;orthogonalLoop=1;jettySize=auto;html=1;entryX=1;entryY=1;entryDx=0;entryDy=0;" parent="1" source="TixPq02yjRBzD6OdScwW-155" target="TixPq02yjRBzD6OdScwW-1" edge="1">
          <mxGeometry relative="1" as="geometry">
            <Array as="points">
              <mxPoint x="520" y="790" />
              <mxPoint x="520" y="640" />
            </Array>
          </mxGeometry>
        </mxCell>
        <mxCell id="TixPq02yjRBzD6OdScwW-155" value="Plan for" style="shape=rhombus;perimeter=rhombusPerimeter;whiteSpace=wrap;html=1;align=center;fillColor=#dae8fc;strokeColor=#6c8ebf;" parent="1" vertex="1">
          <mxGeometry x="580" y="760" width="120" height="60" as="geometry" />
        </mxCell>
        <mxCell id="Lxrb02coDtLvzyHYDfZ3-3" style="edgeStyle=orthogonalEdgeStyle;rounded=0;orthogonalLoop=1;jettySize=auto;html=1;" edge="1" parent="1" source="Lxrb02coDtLvzyHYDfZ3-1">
          <mxGeometry relative="1" as="geometry">
            <mxPoint x="490" y="640" as="targetPoint" />
            <Array as="points">
              <mxPoint x="540" y="840" />
              <mxPoint x="500" y="840" />
              <mxPoint x="500" y="640" />
            </Array>
          </mxGeometry>
        </mxCell>
        <mxCell id="Lxrb02coDtLvzyHYDfZ3-1" value="Done by" style="shape=rhombus;perimeter=rhombusPerimeter;whiteSpace=wrap;html=1;align=center;fillColor=#dae8fc;strokeColor=#6c8ebf;" vertex="1" parent="1">
          <mxGeometry x="480" y="880" width="120" height="60" as="geometry" />
        </mxCell>
        <mxCell id="Lxrb02coDtLvzyHYDfZ3-2" value="" style="endArrow=classic;html=1;rounded=0;exitX=0.25;exitY=0;exitDx=0;exitDy=0;entryX=1;entryY=0.5;entryDx=0;entryDy=0;" edge="1" parent="1" source="TixPq02yjRBzD6OdScwW-5" target="Lxrb02coDtLvzyHYDfZ3-1">
          <mxGeometry width="50" height="50" relative="1" as="geometry">
            <mxPoint x="670" y="820" as="sourcePoint" />
            <mxPoint x="720" y="770" as="targetPoint" />
            <Array as="points">
              <mxPoint x="865" y="940" />
              <mxPoint x="600" y="940" />
            </Array>
          </mxGeometry>
        </mxCell>
        <mxCell id="Lxrb02coDtLvzyHYDfZ3-6" style="edgeStyle=orthogonalEdgeStyle;rounded=0;orthogonalLoop=1;jettySize=auto;html=1;entryX=0.804;entryY=1.02;entryDx=0;entryDy=0;entryPerimeter=0;" edge="1" parent="1" source="Lxrb02coDtLvzyHYDfZ3-4" target="TixPq02yjRBzD6OdScwW-4">
          <mxGeometry relative="1" as="geometry">
            <Array as="points">
              <mxPoint x="960" y="830" />
              <mxPoint x="960" y="690" />
              <mxPoint x="920" y="690" />
            </Array>
          </mxGeometry>
        </mxCell>
        <mxCell id="Lxrb02coDtLvzyHYDfZ3-4" value="Instructed by" style="shape=rhombus;perimeter=rhombusPerimeter;whiteSpace=wrap;html=1;align=center;fillColor=#dae8fc;strokeColor=#6c8ebf;" vertex="1" parent="1">
          <mxGeometry x="1000" y="800" width="120" height="60" as="geometry" />
        </mxCell>
        <mxCell id="Lxrb02coDtLvzyHYDfZ3-5" value="" style="endArrow=classic;html=1;rounded=0;exitX=0.75;exitY=0;exitDx=0;exitDy=0;entryX=0.5;entryY=1;entryDx=0;entryDy=0;" edge="1" parent="1" source="TixPq02yjRBzD6OdScwW-5" target="Lxrb02coDtLvzyHYDfZ3-4">
          <mxGeometry width="50" height="50" relative="1" as="geometry">
            <mxPoint x="880" y="920" as="sourcePoint" />
            <mxPoint x="930" y="870" as="targetPoint" />
            <Array as="points">
              <mxPoint x="915" y="940" />
            </Array>
          </mxGeometry>
        </mxCell>
        <mxCell id="Lxrb02coDtLvzyHYDfZ3-9" style="edgeStyle=orthogonalEdgeStyle;rounded=0;orthogonalLoop=1;jettySize=auto;html=1;exitX=0.5;exitY=0;exitDx=0;exitDy=0;" edge="1" parent="1" source="Lxrb02coDtLvzyHYDfZ3-7" target="TixPq02yjRBzD6OdScwW-3">
          <mxGeometry relative="1" as="geometry">
            <Array as="points">
              <mxPoint x="720" y="400" />
              <mxPoint x="890" y="400" />
            </Array>
          </mxGeometry>
        </mxCell>
        <mxCell id="Lxrb02coDtLvzyHYDfZ3-7" value="Instructed by" style="shape=rhombus;perimeter=rhombusPerimeter;whiteSpace=wrap;html=1;align=center;fillColor=#dae8fc;strokeColor=#6c8ebf;" vertex="1" parent="1">
          <mxGeometry x="660" y="450" width="120" height="60" as="geometry" />
        </mxCell>
      </root>
    </mxGraphModel>
  </diagram>
</mxfile>
